<svg width="16" height="16" viewBox="0 0 16 16" fill="none" xmlns="http://www.w3.org/2000/svg">
<path fill-rule="evenodd" clip-rule="evenodd" d="M12.2687 3.75535C11.7142 3.19728 11.0546 2.75476 10.3279 2.45345C9.60123 2.15214 8.822 1.99802 8.03533 2.00002C4.73667 2.00002 2.05133 4.68469 2.05 7.98469C2.05 9.03935 2.32533 10.0687 2.84867 10.9767L2 14.0774L5.17267 13.2447C6.05026 13.7224 7.03347 13.9729 8.03267 13.9734H8.03533C11.3333 13.9734 14.0187 11.2887 14.02 7.98869C14.0223 7.20234 13.8687 6.42335 13.5681 5.69673C13.2674 4.9701 12.8258 4.31027 12.2687 3.75535ZM8.03533 12.9634H8.03333C7.14234 12.9634 6.26776 12.7237 5.50133 12.2694L5.32 12.1614L3.43733 12.6554L3.93933 10.82L3.82133 10.632C3.32319 9.83897 3.05949 8.92121 3.06067 7.98469C3.062 5.24202 5.29333 3.01069 8.03733 3.01069C8.69083 3.00923 9.33813 3.13741 9.94177 3.38779C10.5454 3.63817 11.0934 4.00578 11.554 4.46935C12.0171 4.93071 12.3841 5.47928 12.6339 6.08335C12.8837 6.68742 13.0113 7.33501 13.0093 7.98869C13.008 10.7314 10.7767 12.9634 8.03533 12.9634ZM10.764 9.23735C10.614 9.16202 9.87933 8.80069 9.742 8.75069C9.60533 8.70069 9.506 8.67602 9.406 8.82535C9.306 8.97469 9.01933 9.31135 8.932 9.41135C8.84467 9.51135 8.75733 9.52335 8.608 9.44869C8.45867 9.37402 7.97667 9.21602 7.40533 8.70669C6.96067 8.31002 6.66067 7.82069 6.57333 7.67069C6.486 7.52069 6.564 7.44002 6.63933 7.36535C6.70667 7.29869 6.78867 7.19069 6.86333 7.10335C6.938 7.01602 6.96267 6.95402 7.01267 6.85402C7.06267 6.75402 7.038 6.66669 7 6.59202C6.96267 6.51669 6.66333 5.78069 6.53867 5.48135C6.418 5.19135 6.29467 5.23002 6.20267 5.22602C6.10738 5.22212 6.01203 5.22034 5.91667 5.22069C5.84084 5.22262 5.76622 5.2402 5.69751 5.27232C5.62879 5.30444 5.56745 5.35041 5.51733 5.40735C5.38 5.55735 4.994 5.91869 4.994 6.65469C4.994 7.39069 5.53 8.10202 5.60467 8.20202C5.67933 8.30202 6.65933 9.81202 8.15933 10.46C8.51667 10.614 8.79533 10.706 9.012 10.7754C9.37 10.8894 9.696 10.8727 9.954 10.8347C10.2413 10.792 10.8387 10.4734 10.9633 10.124C11.088 9.77469 11.088 9.47535 11.0507 9.41269C11.0133 9.35002 10.9127 9.31202 10.764 9.23735Z" fill="#9C9C9C"/>
</svg>
