<svg width="191" height="59" viewBox="0 0 191 59" fill="none" xmlns="http://www.w3.org/2000/svg">
<path d="M0 58.1267H18.5399V0.664963H0V58.1267Z" fill="#9C9C9C"/>
<path d="M43.5346 35.5395V58.1267H25.0732V0.664963H73.0923V16.6146H43.5353V21.9564H73.0923V35.5395H43.5353" fill="#9C9C9C"/>
<path d="M97.2518 41.9483V16.6146H129.872V0.664963H92.2374C84.6404 0.664963 78.7134 6.92247 78.7134 14.2485V44.466C78.7134 52.3274 85.0963 58.1267 92.3902 58.1267H129.872V41.9483H97.2518Z" fill="#9C9C9C"/>
<path d="M161.827 42.1403C154.75 42.1403 149.014 36.3778 149.014 29.2699C149.014 22.1656 154.75 16.4038 161.827 16.4038C168.904 16.4038 174.641 22.1656 174.641 29.2699C174.641 36.3778 168.904 42.1403 161.827 42.1403H161.827ZM160.709 0C144.612 0 132.683 13.1047 132.683 29.2702C132.683 45.4376 145.73 58.5431 161.828 58.5431C177.925 58.5431 190.972 45.4376 190.972 29.2702C190.972 13.1047 176.805 0 160.709 0Z" fill="#9C9C9C"/>
</svg>
