<svg width="235" height="68" viewBox="0 0 235 68" fill="none" xmlns="http://www.w3.org/2000/svg">
<g clip-path="url(#clip0_64_170)">
<mask id="mask0_64_170" style="mask-type:luminance" maskUnits="userSpaceOnUse" x="0" y="0" width="235" height="68">
<path d="M235 0H0V68H235V0Z" fill="white"/>
</mask>
<g mask="url(#mask0_64_170)">
<path d="M75.0434 30.5194C77.7137 30.5194 78.6425 29.2822 78.6425 26.6902C78.6425 23.7898 77.5585 22.823 75.1979 22.823H72.3723V30.5194H75.0434ZM65.0967 17.8333H75.8948C82.8227 17.8333 86.19 20.8502 86.19 26.304C86.19 32.1832 82.6294 35.2001 76.0887 35.2001H72.373V43.8252H65.0973L65.0967 17.8333Z" fill="#9C9C9C"/>
</g>
<path d="M88.9385 17.8333H96.2148V38.6038H106.084V43.8252H88.9385V17.8333Z" fill="#9C9C9C"/>
<path d="M116.651 34.0003H122.301L119.554 25.3752H119.399L116.651 34.0003ZM116.148 17.8333H123.927L132.944 43.8252H125.513L123.772 38.681H115.257L113.632 43.8252H107.052L116.148 17.8333Z" fill="#9C9C9C"/>
<path d="M135.112 17.8333H142.969L151.368 32.3763H151.484V17.8333H157.677V43.8252H150.748L141.461 27.619H141.305V43.8252H135.112V17.8333Z" fill="#9C9C9C"/>
<mask id="mask1_64_170" style="mask-type:luminance" maskUnits="userSpaceOnUse" x="0" y="0" width="235" height="68">
<path d="M235 0H0V68H235V0Z" fill="white"/>
</mask>
<g mask="url(#mask1_64_170)">
<path d="M178.19 31.6413V30.3263C178.19 24.9117 176.642 22.7072 173.236 22.7072C170.024 22.7072 168.359 25.0662 168.359 29.9787V31.293C168.359 36.9019 170.024 38.9514 173.352 38.9514C176.526 38.9514 178.19 36.5923 178.19 31.6413ZM160.734 31.3323V30.4814C160.734 21.237 166.734 17.4085 173.391 17.4085C180.319 17.4085 185.853 21.237 185.853 30.3263V31.1772C185.853 40.4209 179.854 44.2507 173.197 44.2507C166.23 44.2507 160.734 40.4209 160.734 31.3323Z" fill="#9C9C9C"/>
</g>
<path d="M186.351 17.8333H193.781L199.277 35.3932H199.471L204.927 17.8333H211.584L202.721 43.8252H195.213L186.351 17.8333Z" fill="#9C9C9C"/>
<path d="M221.454 25.3752H221.609L224.357 34.0003H218.706L221.454 25.3752ZM218.203 17.8333L209.107 43.8252H215.687L217.312 38.681H225.827L227.569 43.8252H235L225.982 17.8333H218.203Z" fill="#9C9C9C"/>
<mask id="mask2_64_170" style="mask-type:luminance" maskUnits="userSpaceOnUse" x="0" y="0" width="235" height="68">
<path d="M235 0H0V68H235V0Z" fill="white"/>
</mask>
<g mask="url(#mask2_64_170)">
<path d="M3.81799 37.5093C6.88608 33.73 9.33457 31.8443 10.6492 30.8308C11.0163 30.548 11.3068 30.3244 11.5543 30.1088C11.5599 30.1032 11.5655 30.0976 11.5711 30.092C11.5967 30.0702 11.6191 30.0453 11.6434 30.0229C11.6765 29.9911 11.7083 29.9587 11.7388 29.9257C11.745 29.9176 11.7531 29.9114 11.7594 29.9039C11.7731 29.8877 11.7856 29.8703 11.798 29.8541C11.8248 29.8217 11.851 29.7893 11.8759 29.7556C11.8946 29.7307 11.9115 29.7046 11.9277 29.6796C11.9507 29.646 11.9726 29.613 11.9919 29.5787C12.0093 29.5501 12.0249 29.5208 12.0405 29.4915C12.0573 29.4597 12.0742 29.4267 12.0891 29.3937C12.1047 29.3613 12.1178 29.3283 12.1309 29.2953C12.1434 29.2648 12.1564 29.2336 12.167 29.2031C12.1795 29.1676 12.1901 29.1315 12.2013 29.0953C12.21 29.0654 12.2188 29.0362 12.2263 29.0056C12.2356 28.9689 12.2431 28.9315 12.2506 28.8941C12.2562 28.8636 12.2618 28.8331 12.2661 28.8019C12.2711 28.7658 12.2755 28.7291 12.2786 28.6923C12.2811 28.6605 12.2842 28.6275 12.2861 28.5951C12.2873 28.5602 12.288 28.5254 12.288 28.4911C12.288 28.4562 12.2873 28.4213 12.2861 28.3864C12.2842 28.3534 12.2811 28.3217 12.2786 28.2886C12.2755 28.2513 12.2711 28.2151 12.2661 28.1784C12.2618 28.1479 12.2556 28.1167 12.2506 28.0862C12.2431 28.0494 12.2356 28.0121 12.2263 27.9747C12.2188 27.9442 12.21 27.9143 12.2013 27.8844C12.1901 27.8482 12.1795 27.8127 12.167 27.7772C12.1564 27.7461 12.1434 27.7149 12.1309 27.6844C12.1178 27.6508 12.1047 27.6184 12.0891 27.586C12.0742 27.5523 12.0573 27.5206 12.0405 27.4888C12.0249 27.4595 12.0093 27.4302 11.9919 27.4022C11.9726 27.3673 11.9507 27.3343 11.9277 27.3007C11.9115 27.2751 11.8946 27.2496 11.8759 27.2253C11.851 27.1917 11.8248 27.1586 11.798 27.1262C11.7849 27.1107 11.7731 27.0938 11.7594 27.0777C11.7525 27.0689 11.7444 27.0627 11.7376 27.0546C11.712 27.026 11.6858 27.0004 11.6596 26.9736C11.6328 26.9468 11.606 26.9201 11.578 26.8945C11.5699 26.887 11.563 26.8796 11.5543 26.8721C11.3074 26.6559 11.017 26.4329 10.6492 26.1501C9.33457 25.1372 6.88546 23.2516 3.81799 19.4716C3.0706 18.5503 1.71733 18.4089 0.794782 19.1564C-0.126517 19.9033 -0.267393 21.2563 0.479995 22.1777C3.00266 25.2855 5.1482 27.2346 6.68038 28.4905C5.1482 29.7457 3.00266 31.6955 0.479995 34.8033C-0.267393 35.7246 -0.126517 37.077 0.794782 37.8245C1.19372 38.1478 1.67182 38.3042 2.14743 38.3042C2.77327 38.3035 3.39287 38.0319 3.81799 37.5093Z" fill="#9C9C9C"/>
</g>
<mask id="mask3_64_170" style="mask-type:luminance" maskUnits="userSpaceOnUse" x="0" y="0" width="235" height="68">
<path d="M235 0H0V68H235V0Z" fill="white"/>
</mask>
<g mask="url(#mask3_64_170)">
<path d="M5.26961 49.378C5.28831 49.3407 7.09227 45.5545 10.2264 41.3198C13.0389 37.5199 17.5345 32.5582 22.9775 30.5001C22.9794 30.4994 22.9806 30.4988 22.9819 30.4976C23.0423 30.4745 23.1009 30.4483 23.1595 30.4197C23.177 30.411 23.1957 30.4016 23.2131 30.3929C23.253 30.3717 23.2923 30.3493 23.3316 30.3263C23.3503 30.3144 23.3684 30.3038 23.3864 30.292C23.4375 30.2584 23.488 30.2241 23.5367 30.1861C23.5454 30.1792 23.5535 30.1718 23.5622 30.1643C23.6027 30.1319 23.6432 30.0983 23.6819 30.0615C23.6956 30.0478 23.7099 30.0341 23.7243 30.0198C23.7573 29.988 23.7897 29.9537 23.8203 29.9189C23.8321 29.9058 23.8446 29.8933 23.8552 29.8802C23.8951 29.8329 23.9343 29.7837 23.9705 29.7326L23.9711 29.732C24.0085 29.6803 24.0428 29.6248 24.0752 29.5688C24.0827 29.5557 24.0902 29.5414 24.0977 29.527C24.1207 29.4865 24.1413 29.4448 24.1619 29.4024C24.1712 29.3819 24.1799 29.362 24.1893 29.3408C24.1968 29.324 24.2043 29.3078 24.2117 29.2903C24.2186 29.2735 24.223 29.2573 24.2286 29.2405C24.2423 29.2037 24.2554 29.1664 24.2666 29.1296C24.2772 29.0978 24.2859 29.0667 24.294 29.0349C24.3034 28.9994 24.3115 28.9633 24.3189 28.9271C24.3252 28.8941 24.332 28.8599 24.3376 28.8262C24.3433 28.7913 24.3476 28.7571 24.3514 28.7216C24.3551 28.6867 24.3582 28.6518 24.3607 28.6175C24.3626 28.5827 24.3638 28.5478 24.3638 28.5123C24.3638 28.478 24.3638 28.4437 24.3626 28.4089C24.3613 28.374 24.3582 28.3385 24.3557 28.303C24.3526 28.2681 24.3489 28.2338 24.3439 28.1996C24.3395 28.1653 24.3333 28.1317 24.3271 28.0974C24.3202 28.0613 24.3127 28.0251 24.304 27.9896C24.2965 27.9579 24.2884 27.9255 24.2784 27.8943C24.2672 27.8569 24.2554 27.8189 24.2423 27.7828C24.236 27.7666 24.2323 27.7492 24.2261 27.7324C24.2211 27.7187 24.2149 27.7062 24.2086 27.6931C24.1949 27.6576 24.1787 27.6215 24.1625 27.5866C24.1482 27.5561 24.1338 27.5262 24.1189 27.4963C24.102 27.4651 24.0846 27.4346 24.0665 27.4053C24.0484 27.3742 24.0303 27.343 24.011 27.3137C23.9929 27.2857 23.973 27.2589 23.9537 27.2328C23.9325 27.2035 23.9107 27.1736 23.8882 27.1443C23.867 27.1181 23.8446 27.0926 23.8221 27.0671C23.7991 27.0409 23.7754 27.0147 23.7511 26.9892C23.7255 26.9643 23.6993 26.9394 23.6725 26.9144C23.6476 26.8926 23.6239 26.8702 23.5996 26.8497C23.5703 26.8247 23.541 26.8023 23.5105 26.7805C23.4843 26.7618 23.4594 26.7413 23.4319 26.7232C23.402 26.7033 23.3708 26.6833 23.3397 26.6647C23.311 26.6466 23.2811 26.6285 23.2505 26.6117C23.2206 26.5955 23.1901 26.5806 23.1595 26.5662C23.1246 26.5494 23.0903 26.5332 23.0554 26.5176C23.0417 26.512 23.0293 26.5052 23.0155 26.4996C15.4345 23.4659 8.09522 13.1289 8.02167 13.0249C7.33973 12.0544 5.99955 11.8208 5.029 12.5023C4.05721 13.1838 3.82284 14.5231 4.50477 15.4942C4.78278 15.8904 10.4465 23.8764 17.5139 28.4332C7.64268 34.4619 1.66233 46.9523 1.38183 47.5466C0.876921 48.6187 1.33632 49.8969 2.4091 50.4034C2.70581 50.5423 3.01748 50.609 3.32479 50.609C4.13014 50.609 4.90309 50.1542 5.26961 49.378Z" fill="#9C9C9C"/>
</g>
<mask id="mask4_64_170" style="mask-type:luminance" maskUnits="userSpaceOnUse" x="0" y="0" width="235" height="68">
<path d="M235 0H0V68H235V0Z" fill="white"/>
</mask>
<g mask="url(#mask4_64_170)">
<path d="M23.0898 37.3629C26.9701 34.7341 31.2462 33.3151 35.8022 33.145C35.9774 33.1375 36.3178 33.1456 36.6768 33.1544C38.4359 33.1955 41.3787 33.2634 44.079 32.3801C47.738 31.1853 49.8343 28.5135 49.9914 24.8532C50.0643 24.158 50.1603 21.6538 48.1507 19.4604C45.9796 17.0895 42.2345 16.0573 37.0221 16.3925C37.014 16.3931 37.0065 16.3937 36.9984 16.3937C36.966 16.3956 33.6661 16.6255 29.7128 15.2874C24.4867 13.5201 20.7978 9.95572 18.7495 4.69692C18.3194 3.59121 17.0733 3.04427 15.9681 3.4741C14.8617 3.90392 14.3138 5.14854 14.7445 6.25425C17.8974 14.3493 23.8746 17.847 28.3346 19.3558C33.0034 20.9355 36.9748 20.7007 37.3045 20.6776C40.9897 20.4422 43.6994 21.0221 44.9336 22.311C45.772 23.1862 45.7028 24.5056 45.6997 24.614C45.6348 26.5401 44.7503 27.6427 42.7425 28.2986C40.7416 28.9521 38.2588 28.8954 36.7759 28.8605C36.3128 28.8505 35.9469 28.8418 35.6402 28.8536C30.2688 29.0542 25.2341 30.7218 20.6781 33.8084C17.0889 36.2391 13.8001 39.5482 10.9035 43.6421C6.02831 50.5305 3.94697 57.2426 3.86033 57.5248C3.51375 58.6591 4.1533 59.8595 5.28778 60.2059C5.49722 60.2706 5.70854 60.2993 5.91611 60.2993C6.83616 60.2993 7.68765 59.7044 7.97064 58.7787C7.98997 58.7164 9.9323 52.4516 14.4123 46.1213C17.011 42.4504 19.9295 39.5027 23.0898 37.3629Z" fill="#9C9C9C"/>
</g>
<mask id="mask5_64_170" style="mask-type:luminance" maskUnits="userSpaceOnUse" x="0" y="0" width="235" height="68">
<path d="M235 0H0V68H235V0Z" fill="white"/>
</mask>
<g mask="url(#mask5_64_170)">
<path d="M15.6291 18.5715C18.335 21.105 21.3177 23.0915 24.4942 24.4763C28.0878 26.0423 31.9257 26.8335 35.922 26.8335C36.3483 26.8335 36.7766 26.8241 37.2067 26.8061H41.4878C42.6746 26.8061 43.6371 25.8449 43.6371 24.6588C43.6371 23.4727 42.6746 22.5109 41.4878 22.5109H37.1606L37.0677 22.5128C30.1779 22.8124 23.9893 20.4652 18.6747 15.5366C14.6161 11.7728 12.6096 7.83525 12.5903 7.79601C12.0592 6.73702 10.7714 6.30657 9.71044 6.83482C8.64826 7.36307 8.21566 8.65192 8.74426 9.71402C8.83589 9.89903 11.0481 14.2826 15.6291 18.5715Z" fill="#9C9C9C"/>
</g>
<mask id="mask6_64_170" style="mask-type:luminance" maskUnits="userSpaceOnUse" x="0" y="0" width="235" height="68">
<path d="M235 0H0V68H235V0Z" fill="white"/>
</mask>
<g mask="url(#mask6_64_170)">
<path d="M53.8718 16.1564C52.4593 14.3075 50.5189 12.8349 48.1022 11.7797C44.1571 10.0573 40.2481 10.0379 40.0835 10.0379C27.1679 10.0379 25.5952 3.01437 25.5353 2.71599C25.5353 2.71599 25.1763 0.541329 23.0326 1.0023C21.0273 1.43275 21.3053 3.47784 21.3053 3.47784C21.3571 3.77871 21.8925 6.49657 24.5779 9.1702C26.1188 10.7039 28.0648 11.918 30.3594 12.7788C33.1114 13.8098 36.3834 14.3331 40.0829 14.3331C40.1147 14.3331 43.2987 14.3711 46.3811 15.7166C50.33 17.4409 52.2511 20.3749 52.2511 24.6868C52.2511 25.2693 52.1477 28.3148 50.1231 31.0183C48.0517 33.7835 44.6732 35.1864 40.0835 35.1864C32.1845 35.1864 26.2397 37.2489 21.3739 41.6767C16.1403 46.4403 12.1204 54.164 9.08408 65.2871C8.77179 66.4315 9.44687 67.6119 10.5913 67.924C10.7808 67.9757 10.9709 68 11.1579 68C12.1029 68 12.9694 67.3721 13.2299 66.4178C16.0456 56.1038 19.656 49.0498 24.2681 44.8512C28.2942 41.1871 33.3196 39.4796 40.0835 39.4796C47.5798 39.4796 51.5518 36.2771 53.5639 33.5904C56.334 29.8933 56.5485 25.8399 56.5485 24.6856C56.5485 21.3529 55.6471 18.483 53.8718 16.1564Z" fill="#9C9C9C"/>
</g>
<mask id="mask7_64_170" style="mask-type:luminance" maskUnits="userSpaceOnUse" x="0" y="0" width="235" height="68">
<path d="M235 0H0V68H235V0Z" fill="white"/>
</mask>
<g mask="url(#mask7_64_170)">
<path d="M31.4026 5.95213C33.6273 7.43471 36.5501 8.18472 40.0969 8.18472C40.2453 8.18472 40.3955 8.18347 40.5476 8.18036C41.7338 8.15918 42.6788 7.18117 42.6576 5.99511C42.6371 4.82275 41.679 3.88586 40.5102 3.88586C40.4971 3.88586 40.4847 3.88648 40.4716 3.88648C34.1964 3.99425 32.5975 1.27265 32.5975 1.27265C32.5975 1.27265 31.5983 -0.716996 29.6983 0.278451C27.8663 1.23839 28.7128 3.11155 28.7128 3.11155C28.835 3.36758 29.5344 4.70813 31.4026 5.95213Z" fill="#9C9C9C"/>
</g>
<mask id="mask8_64_170" style="mask-type:luminance" maskUnits="userSpaceOnUse" x="0" y="0" width="235" height="68">
<path d="M235 0H0V68H235V0Z" fill="white"/>
</mask>
<g mask="url(#mask8_64_170)">
<path d="M48.8346 39.8951C46.4017 41.2855 43.9251 42 41.4717 42.0187C37.1382 42.053 32.2263 42.091 27.8317 44.8624C23.1155 47.8375 19.7145 53.419 17.1295 62.4291C16.8029 63.5691 17.4618 64.7583 18.6025 65.0853C18.8007 65.1426 19.0002 65.1694 19.1959 65.1694C20.1303 65.1694 20.9899 64.5558 21.2604 63.6139C23.507 55.7861 26.4061 50.8413 30.1262 48.4947C33.4848 46.3767 37.3813 46.3462 41.5053 46.3145C44.705 46.2895 47.8884 45.3844 50.9689 43.6246C51.9987 43.036 52.3565 41.7241 51.7674 40.6937C51.1784 39.6634 49.8644 39.3071 48.8346 39.8951Z" fill="#9C9C9C"/>
</g>
<mask id="mask9_64_170" style="mask-type:luminance" maskUnits="userSpaceOnUse" x="0" y="0" width="235" height="68">
<path d="M235 0H0V68H235V0Z" fill="white"/>
</mask>
<g mask="url(#mask9_64_170)">
<path d="M37.7677 48.3066C34.32 48.4443 31.2612 49.8832 28.9218 52.4684C27.2151 54.3546 26.4883 56.1898 26.411 56.3929C25.989 57.5017 26.5463 58.7426 27.6552 59.1643C27.907 59.2596 28.1645 59.3057 28.4194 59.3057C29.2859 59.3057 30.1018 58.7781 30.4285 57.9203C30.4472 57.8686 32.4331 52.8185 37.9397 52.598C39.1253 52.55 40.0491 51.5514 40.0011 50.366C39.9538 49.1806 38.9514 48.2592 37.7677 48.3066Z" fill="#9C9C9C"/>
</g>
</g>
<defs>
<clipPath id="clip0_64_170">
<rect width="235" height="68" fill="white"/>
</clipPath>
</defs>
</svg>
