<svg width="84" height="21" viewBox="0 0 84 21" fill="none" xmlns="http://www.w3.org/2000/svg">
<path d="M4.9201 20.2039C3.4881 20.2039 2.4641 19.8959 1.8481 19.2799C1.2321 18.6559 0.896104 17.6319 0.840104 16.2079C0.832104 15.8319 0.824104 15.4679 0.816104 15.1159C0.816104 14.7559 0.820104 14.3959 0.828104 14.0359C0.844104 13.6759 0.868104 13.3079 0.900104 12.9319H3.3481C3.3161 13.5719 3.2961 14.2119 3.2881 14.8519C3.2881 15.4919 3.3081 16.0959 3.3481 16.6639C3.3801 17.1359 3.5201 17.4879 3.7681 17.7199C4.0161 17.9439 4.3961 18.0559 4.9081 18.0559C5.4121 18.0559 5.7761 17.9439 6.0001 17.7199C6.2241 17.4879 6.3601 17.1359 6.4081 16.6639C6.4321 16.3039 6.4481 15.9679 6.4561 15.6559C6.4641 15.3439 6.4641 15.0279 6.4561 14.7079C6.4481 14.3879 6.4321 14.0359 6.4081 13.6519C6.3761 13.1799 6.2801 12.7759 6.1201 12.4399C5.9601 12.1039 5.6681 11.8799 5.2441 11.7679L3.6361 11.3599C2.9161 11.1759 2.3521 10.9079 1.9441 10.5559C1.5361 10.1959 1.2441 9.73995 1.0681 9.18795C0.892104 8.63595 0.792104 7.97595 0.768104 7.20795C0.760104 6.77595 0.756104 6.33595 0.756104 5.88795C0.764104 5.43995 0.772104 4.99595 0.780104 4.55595C0.812104 3.61195 0.964104 2.85195 1.2361 2.27595C1.5161 1.69195 1.9521 1.26795 2.5441 1.00395C3.1441 0.731947 3.9321 0.595947 4.9081 0.595947C6.2921 0.595947 7.2921 0.903947 7.9081 1.51995C8.5321 2.13595 8.8721 3.15195 8.9281 4.56795C8.9441 4.95995 8.9481 5.44395 8.9401 6.01995C8.9321 6.58795 8.9161 7.15595 8.8921 7.72395H6.3961C6.4201 7.12395 6.4321 6.52395 6.4321 5.92395C6.4401 5.31595 6.4321 4.71195 6.4081 4.11195C6.4001 3.64795 6.2681 3.30395 6.0121 3.07995C5.7561 2.84795 5.3841 2.73195 4.8961 2.73195C4.3841 2.73195 4.0121 2.84795 3.7801 3.07995C3.5481 3.30395 3.4121 3.64795 3.3721 4.11195C3.3321 4.62395 3.3121 5.13995 3.3121 5.65995C3.3201 6.17995 3.3401 6.69595 3.3721 7.20795C3.4041 7.71995 3.5041 8.13195 3.6721 8.44395C3.8401 8.75595 4.1441 8.96795 4.5841 9.07995L6.0361 9.42795C6.7961 9.60395 7.3881 9.87995 7.8121 10.2559C8.2361 10.6239 8.5361 11.0919 8.7121 11.6599C8.8881 12.2199 8.9881 12.8839 9.0121 13.6519C9.0281 13.9879 9.0361 14.2919 9.0361 14.5639C9.0361 14.8359 9.0321 15.1039 9.0241 15.3679C9.0161 15.6239 9.0081 15.9039 9.0001 16.2079C8.9441 17.6319 8.6041 18.6559 7.9801 19.2799C7.3641 19.8959 6.3441 20.2039 4.9201 20.2039Z" fill="white"/>
<path d="M17.4655 19.9999V3.10395H14.7055V0.799948H22.8295V3.10395H20.0695V19.9999H17.4655Z" fill="white"/>
<path d="M27.2575 19.9999L29.6095 0.799948H33.9295L36.2815 19.9999H33.6295L33.1735 15.2119H30.3655L29.9215 19.9999H27.2575ZM30.6175 12.9079H32.9335L32.5255 8.68395L32.1055 3.10395H31.4335L31.0255 8.68395L30.6175 12.9079Z" fill="white"/>
<path d="M42.5864 19.9999V0.799948H46.5464L47.7944 6.89595L49.2704 17.6959H49.8584L49.3784 8.31195L49.1864 0.799948H51.7064V19.9999H47.5664L46.2464 13.4119L45.0704 3.09195H44.4464L44.8904 12.7279L45.0944 19.9999H42.5864Z" fill="white"/>
<path d="M58.7302 19.9999V0.799948H62.6902L63.9382 6.89595L65.4142 17.6959H66.0022L65.5222 8.31195L65.3302 0.799948H67.8502V19.9999H63.7102L62.3902 13.4119L61.2142 3.09195H60.5902L61.0342 12.7279L61.2382 19.9999H58.7302Z" fill="white"/>
<path d="M74.1419 19.9999L76.4939 0.799948H80.8139L83.1659 19.9999H80.5139L80.0579 15.2119H77.2499L76.8059 19.9999H74.1419ZM77.5019 12.9079H79.8179L79.4099 8.68395L78.9899 3.10395H78.3179L77.9099 8.68395L77.5019 12.9079Z" fill="white"/>
</svg>
