<svg width="16" height="16" viewBox="0 0 16 16" fill="none" xmlns="http://www.w3.org/2000/svg">
<g clip-path="url(#clip0_121_165)">
<path d="M7.99984 0.666748C3.96664 0.666748 0.666504 3.96688 0.666504 8.00008C0.666504 12.0333 3.96664 15.3334 7.99984 15.3334C12.033 15.3334 15.3332 12.0333 15.3332 8.00008C15.3332 3.96688 12.033 0.666748 7.99984 0.666748ZM10.603 10.7872L7.61086 8.94612C7.50313 8.88177 7.41402 8.79048 7.3523 8.68123C7.29057 8.57198 7.25837 8.44854 7.25885 8.32305V4.883C7.26271 4.73697 7.32297 4.59812 7.427 4.49557C7.53102 4.39302 7.67073 4.33474 7.81679 4.33298C7.96231 4.33413 8.10154 4.39244 8.20444 4.49534C8.30734 4.59824 8.36566 4.73748 8.36681 4.883V8.14617L11.1829 9.84024C11.4469 10.0022 11.5349 10.3463 11.373 10.6111C11.2934 10.7356 11.1681 10.8238 11.024 10.8568C10.88 10.8897 10.7288 10.8647 10.603 10.7872Z" fill="#9C9C9C"/>
</g>
<defs>
<clipPath id="clip0_121_165">
<rect width="16" height="16" fill="white"/>
</clipPath>
</defs>
</svg>
