<svg width="24" height="24" viewBox="0 0 24 24" fill="none" xmlns="http://www.w3.org/2000/svg">
<path d="M12 2C6.50018 2 2 6.50018 2 12C2 17.4998 6.50018 22 12 22C17.4998 22 22 17.4998 22 12C22 6.50018 17.4998 2 12 2ZM15.5497 15.8006L11.4696 13.2901C11.3227 13.2023 11.2012 13.0778 11.117 12.9288C11.0328 12.7799 10.9889 12.6115 10.9896 12.4404V7.74943C10.9948 7.55031 11.077 7.36096 11.2189 7.22112C11.3607 7.08128 11.5512 7.00181 11.7504 6.9994C11.9488 7.00097 12.1387 7.08049 12.279 7.22081C12.4193 7.36113 12.4989 7.551 12.5004 7.74943V12.1992L16.3406 14.5093C16.7006 14.7301 16.8206 15.1993 16.5998 15.5605C16.4912 15.7303 16.3203 15.8506 16.1239 15.8955C15.9275 15.9404 15.7213 15.9063 15.5497 15.8006Z" fill="#FFBF00"/>
</svg>
