<svg width="177" height="128" viewBox="0 0 177 128" fill="none" xmlns="http://www.w3.org/2000/svg">
<path d="M88.3555 19.7523L110.369 32.7973V57.2567L88.3555 70.3017L66.342 57.2567V43.3963L72.0492 46.6576V54.8107L88.3555 64.5945L104.662 54.8107V36.8738L88.3555 27.0901V19.7523Z" fill="url(#paint0_linear_2_354)"/>
<path d="M88.3555 70.3017L110.369 57.2567V32.7973L88.3555 19.7523V27.0901L104.662 36.8738V54.8107L88.3555 64.5945M88.3555 70.3017L66.342 57.2567V43.3963L72.0492 46.6576V54.8107L88.3555 64.5945M88.3555 70.3017V64.5945" stroke="url(#paint1_linear_2_354)"/>
<path d="M66.342 38.5044L88.3554 51.5494V44.2116L72.0492 34.4278V16.4909L88.3554 6.70714L104.662 16.4909V24.644L110.369 27.9053V14.045L88.3554 0.999943L66.342 14.045V38.5044Z" fill="url(#paint2_linear_2_354)" stroke="url(#paint3_linear_2_354)"/>
<path d="M48.0464 102.321C46.4897 102.321 45.3765 101.986 44.7069 101.316C44.0372 100.638 43.672 99.5246 43.6111 97.9766C43.6024 97.5679 43.5937 97.1722 43.585 96.7895C43.585 96.3982 43.5893 96.0068 43.598 95.6155C43.6154 95.2241 43.6415 94.8241 43.6763 94.4153H46.3375C46.3027 95.111 46.281 95.8068 46.2723 96.5025C46.2723 97.1982 46.294 97.8548 46.3375 98.4723C46.3723 98.9854 46.5245 99.3681 46.7941 99.6203C47.0637 99.8638 47.4768 99.9855 48.0334 99.9855C48.5812 99.9855 48.9769 99.8638 49.2204 99.6203C49.464 99.3681 49.6118 98.9854 49.664 98.4723C49.6901 98.081 49.7075 97.7157 49.7162 97.3765C49.7249 97.0374 49.7249 96.6938 49.7162 96.346C49.7075 95.9981 49.6901 95.6155 49.664 95.198C49.6292 94.6849 49.5248 94.2457 49.3509 93.8805C49.177 93.5152 48.8595 93.2717 48.3986 93.1499L46.6506 92.7064C45.8679 92.5064 45.2548 92.2151 44.8112 91.8324C44.3677 91.441 44.0503 90.9453 43.8589 90.3453C43.6676 89.7452 43.5589 89.0277 43.5328 88.1928C43.5241 87.7232 43.5198 87.2449 43.5198 86.7579C43.5285 86.2709 43.5372 85.7882 43.5459 85.3099C43.5807 84.2837 43.7459 83.4575 44.0416 82.8313C44.346 82.1965 44.8199 81.7356 45.4635 81.4486C46.1157 81.1529 46.9724 81.005 48.0334 81.005C49.5379 81.005 50.625 81.3399 51.2946 82.0095C51.9729 82.6791 52.3426 83.7836 52.4034 85.3229C52.4208 85.7491 52.4252 86.2752 52.4165 86.9014C52.4078 87.5188 52.3904 88.1363 52.3643 88.7538H49.6509C49.677 88.1015 49.6901 87.4493 49.6901 86.797C49.6988 86.1361 49.6901 85.4795 49.664 84.8272C49.6553 84.3228 49.5118 83.9489 49.2335 83.7054C48.9552 83.4532 48.5508 83.327 48.0203 83.327C47.4637 83.327 47.0593 83.4532 46.8071 83.7054C46.5549 83.9489 46.4071 84.3228 46.3636 84.8272C46.3201 85.3838 46.2984 85.9447 46.2984 86.51C46.3071 87.0753 46.3288 87.6363 46.3636 88.1928C46.3984 88.7494 46.5071 89.1973 46.6897 89.5365C46.8723 89.8756 47.2028 90.1061 47.6811 90.2279L49.2596 90.6062C50.0858 90.7975 50.7293 91.0975 51.1902 91.5063C51.6512 91.9063 51.9773 92.4151 52.1686 93.0325C52.3599 93.6413 52.4687 94.3631 52.4947 95.198C52.5121 95.5633 52.5208 95.8937 52.5208 96.1894C52.5208 96.4851 52.5165 96.7765 52.5078 97.0634C52.4991 97.3417 52.4904 97.6461 52.4817 97.9766C52.4208 99.5246 52.0512 100.638 51.3729 101.316C50.7032 101.986 49.5944 102.321 48.0464 102.321Z" fill="#B3B3B3"/>
<path d="M61.6843 102.099V83.7314H58.684V81.2268H67.5155V83.7314H64.5151V102.099H61.6843Z" fill="#B3B3B3"/>
<path d="M72.3291 102.099L74.8859 81.2268H79.5821L82.1389 102.099H79.256L78.7603 96.8939H75.7077L75.2251 102.099H72.3291ZM75.9817 94.3892H78.4994L78.0558 89.7974L77.5993 83.7314H76.8687L76.4252 89.7974L75.9817 94.3892Z" fill="#B3B3B3"/>
<path d="M88.9929 102.099V81.2268H93.2977L94.6544 87.8537L96.2589 99.5942H96.8981L96.3763 89.393L96.1676 81.2268H98.9071V102.099H94.4065L92.9716 94.9371L91.6932 83.7184H91.0148L91.4975 94.1935L91.7193 102.099H88.9929Z" fill="#B3B3B3"/>
<path d="M106.542 102.099V81.2268H110.847L112.204 87.8537L113.809 99.5942H114.448L113.926 89.393L113.717 81.2268H116.457V102.099H111.956L110.521 94.9371L109.243 83.7184H108.564L109.047 94.1935L109.269 102.099H106.542Z" fill="#B3B3B3"/>
<path d="M123.296 102.099L125.853 81.2268H130.549L133.106 102.099H130.223L129.728 96.8939H126.675L126.192 102.099H123.296ZM126.949 94.3892H129.467L129.023 89.7974L128.567 83.7314H127.836L127.392 89.7974L126.949 94.3892Z" fill="#B3B3B3"/>
<path d="M2.82914 125.066C1.8562 125.066 1.16046 124.857 0.741935 124.438C0.323408 124.014 0.0951199 123.319 0.0570719 122.351C0.0516365 122.096 0.0462011 121.848 0.0407657 121.609C0.0407657 121.365 0.0434834 121.12 0.0489188 120.875C0.0597897 120.631 0.0760959 120.381 0.0978376 120.125H1.76108C1.73934 120.56 1.72575 120.995 1.72031 121.43C1.72031 121.865 1.7339 122.275 1.76108 122.661C1.78282 122.982 1.87794 123.221 2.04644 123.378C2.21493 123.531 2.47312 123.607 2.82098 123.607C3.16342 123.607 3.41073 123.531 3.56292 123.378C3.71511 123.221 3.80751 122.982 3.84013 122.661C3.85643 122.416 3.8673 122.188 3.87274 121.976C3.87817 121.764 3.87817 121.549 3.87274 121.332C3.8673 121.115 3.85643 120.875 3.84013 120.615C3.81838 120.294 3.75316 120.019 3.64445 119.791C3.53574 119.563 3.33735 119.411 3.04927 119.335L1.95675 119.057C1.46756 118.932 1.08437 118.75 0.80716 118.511C0.529954 118.266 0.331561 117.957 0.211981 117.582C0.0924022 117.207 0.0244594 116.758 0.00815315 116.236C0.00271772 115.943 0 115.644 0 115.34C0.00543543 115.035 0.0108709 114.733 0.0163063 114.435C0.038048 113.793 0.141321 113.277 0.326125 112.885C0.516365 112.489 0.812596 112.201 1.21482 112.021C1.62247 111.836 2.15786 111.744 2.82098 111.744C3.76131 111.744 4.44074 111.953 4.85927 112.372C5.28323 112.79 5.51424 113.481 5.55228 114.443C5.56316 114.709 5.56587 115.038 5.56044 115.429C5.555 115.815 5.54413 116.201 5.52783 116.587H3.83197C3.84828 116.179 3.85643 115.772 3.85643 115.364C3.86187 114.951 3.85643 114.54 3.84013 114.133C3.83469 113.818 3.74501 113.584 3.57107 113.432C3.39714 113.274 3.14439 113.195 2.81283 113.195C2.46496 113.195 2.21222 113.274 2.05459 113.432C1.89696 113.584 1.80456 113.818 1.77738 114.133C1.75021 114.481 1.73662 114.831 1.73662 115.185C1.74205 115.538 1.75564 115.888 1.77738 116.236C1.79912 116.584 1.86707 116.864 1.98121 117.076C2.09536 117.288 2.3019 117.432 2.60085 117.508L3.58738 117.745C4.10374 117.864 4.50597 118.052 4.79404 118.307C5.08212 118.557 5.28595 118.875 5.40553 119.261C5.52511 119.642 5.59305 120.093 5.60936 120.615C5.62023 120.843 5.62566 121.049 5.62566 121.234C5.62566 121.419 5.62294 121.601 5.61751 121.78C5.61207 121.954 5.60664 122.145 5.6012 122.351C5.56316 123.319 5.33215 124.014 4.90819 124.438C4.48966 124.857 3.79664 125.066 2.82914 125.066Z" fill="#B3B3B3"/>
<path d="M12.8775 125.066C11.8991 125.066 11.1925 124.86 10.7577 124.447C10.3283 124.028 10.1054 123.335 10.0891 122.368C10.0728 121.715 10.0619 121.058 10.0565 120.394C10.0511 119.731 10.0484 119.068 10.0484 118.405C10.0484 117.737 10.0511 117.073 10.0565 116.416C10.0619 115.753 10.0728 115.092 10.0891 114.435C10.1054 113.472 10.3283 112.785 10.7577 112.372C11.1925 111.953 11.8991 111.744 12.8775 111.744C13.8559 111.744 14.557 111.953 14.981 112.372C15.4104 112.785 15.636 113.472 15.6577 114.435C15.6795 115.098 15.693 115.761 15.6985 116.424C15.7093 117.087 15.7148 117.75 15.7148 118.413C15.7148 119.076 15.7093 119.739 15.6985 120.403C15.693 121.06 15.6795 121.715 15.6577 122.368C15.636 123.335 15.4104 124.028 14.981 124.447C14.557 124.86 13.8559 125.066 12.8775 125.066ZM12.8775 123.607C13.2254 123.607 13.4808 123.533 13.6439 123.387C13.807 123.234 13.8912 122.998 13.8966 122.677C13.9238 122.003 13.9401 121.305 13.9456 120.582C13.9564 119.854 13.9619 119.12 13.9619 118.381C13.9619 117.641 13.9564 116.913 13.9456 116.196C13.9347 115.478 13.9184 114.788 13.8966 114.125C13.8912 113.804 13.8042 113.57 13.6357 113.424C13.4727 113.271 13.2199 113.195 12.8775 113.195C12.5351 113.195 12.2796 113.271 12.1111 113.424C11.948 113.57 11.8611 113.804 11.8502 114.125C11.8285 114.788 11.8094 115.478 11.7931 116.196C11.7823 116.913 11.7768 117.641 11.7768 118.381C11.7823 119.12 11.7904 119.854 11.8013 120.582C11.8122 121.305 11.8285 122.003 11.8502 122.677C11.8611 122.998 11.948 123.234 12.1111 123.387C12.2796 123.533 12.5351 123.607 12.8775 123.607Z" fill="#B3B3B3"/>
<path d="M20.3822 124.928V111.883H22.1433V123.362H25.0539V124.928H20.3822Z" fill="#B3B3B3"/>
<path d="M31.9467 125.066C30.9574 125.066 30.2481 124.86 29.8187 124.447C29.3947 124.028 29.1773 123.335 29.1664 122.368C29.1447 120.628 29.1338 118.881 29.1338 117.125C29.1338 115.364 29.1447 113.616 29.1664 111.883H30.9275C30.9112 113.04 30.9003 114.231 30.8949 115.454C30.8895 116.671 30.8895 117.891 30.8949 119.114C30.9003 120.332 30.9085 121.52 30.9194 122.677C30.9194 122.987 31.0063 123.221 31.1803 123.378C31.3542 123.531 31.6097 123.607 31.9467 123.607C32.2891 123.607 32.5418 123.531 32.7049 123.378C32.8734 123.221 32.9576 122.987 32.9576 122.677C32.9685 121.52 32.9767 120.332 32.9821 119.114C32.9875 117.891 32.9875 116.671 32.9821 115.454C32.9821 114.231 32.9739 113.04 32.9576 111.883H34.7187C34.7459 113.616 34.7595 115.364 34.7595 117.125C34.7595 118.881 34.7459 120.628 34.7187 122.368C34.7079 123.335 34.4877 124.028 34.0583 124.447C33.6344 124.86 32.9305 125.066 31.9467 125.066Z" fill="#B3B3B3"/>
<path d="M42.096 125.066C41.1068 125.066 40.4002 124.857 39.9762 124.438C39.5577 124.02 39.3403 123.327 39.324 122.359C39.3131 121.751 39.3049 121.112 39.2995 120.443C39.2941 119.775 39.2914 119.095 39.2914 118.405C39.2914 117.715 39.2941 117.035 39.2995 116.367C39.3049 115.693 39.3131 115.049 39.324 114.435C39.3348 113.587 39.5577 112.929 39.9925 112.461C40.4274 111.989 41.1258 111.752 42.0879 111.752C43.0445 111.752 43.7375 111.961 44.1669 112.38C44.5963 112.793 44.8273 113.483 44.8599 114.451C44.8654 114.641 44.8681 114.869 44.8681 115.136C44.8681 115.397 44.8654 115.657 44.8599 115.918C44.8545 116.174 44.8491 116.399 44.8436 116.595H43.0826C43.088 116.356 43.0907 116.092 43.0907 115.804C43.0961 115.516 43.0989 115.228 43.0989 114.94C43.0989 114.646 43.0961 114.38 43.0907 114.141C43.0853 113.82 42.9983 113.584 42.8298 113.432C42.6668 113.279 42.4194 113.203 42.0879 113.203C41.7563 113.203 41.509 113.279 41.3459 113.432C41.1829 113.584 41.0959 113.82 41.085 114.141C41.0633 114.831 41.047 115.535 41.0361 116.253C41.0307 116.965 41.028 117.682 41.028 118.405C41.028 119.128 41.0307 119.848 41.0361 120.566C41.047 121.283 41.0633 121.984 41.085 122.669C41.0959 122.99 41.1829 123.229 41.3459 123.387C41.5144 123.539 41.7645 123.615 42.096 123.615C42.4493 123.615 42.713 123.539 42.8869 123.387C43.0608 123.229 43.1505 122.99 43.1559 122.669C43.1614 122.425 43.1641 122.153 43.1641 121.854C43.1695 121.549 43.1695 121.248 43.1641 120.949C43.1587 120.65 43.1532 120.378 43.1478 120.134H44.917C44.9279 120.492 44.9333 120.865 44.9333 121.251C44.9388 121.631 44.936 122.001 44.9252 122.359C44.8926 123.327 44.6561 124.02 44.2158 124.438C43.781 124.857 43.0744 125.066 42.096 125.066ZM40.4654 127.251V126.379H40.9627C41.2563 126.379 41.4628 126.316 41.5824 126.191C41.7074 126.072 41.7482 125.871 41.7047 125.588L41.5742 124.813H42.52L42.6423 125.588C42.7293 126.17 42.6341 126.591 42.3569 126.852C42.0852 127.118 41.6204 127.251 40.9627 127.251H40.4654Z" fill="#B3B3B3"/>
<path d="M52.2291 125.066C51.2507 125.066 50.5441 124.86 50.1093 124.447C49.6799 124.028 49.457 123.335 49.4407 122.368C49.4244 121.715 49.4136 121.058 49.4081 120.394C49.4027 119.731 49.4 119.068 49.4 118.405C49.4 117.737 49.4027 117.073 49.4081 116.416C49.4136 115.753 49.4244 115.092 49.4407 114.435C49.457 113.472 49.6799 112.785 50.1093 112.372C50.5441 111.953 51.2507 111.744 52.2291 111.744C53.2075 111.744 53.9087 111.953 54.3326 112.372C54.762 112.785 54.9876 113.472 55.0093 114.435C55.0311 115.098 55.0447 115.761 55.0501 116.424C55.061 117.087 55.0664 117.75 55.0664 118.413C55.0664 119.076 55.061 119.739 55.0501 120.403C55.0447 121.06 55.0311 121.715 55.0093 122.368C54.9876 123.335 54.762 124.028 54.3326 124.447C53.9087 124.86 53.2075 125.066 52.2291 125.066ZM52.2291 123.607C52.577 123.607 52.8324 123.533 52.9955 123.387C53.1586 123.234 53.2428 122.998 53.2482 122.677C53.2754 122.003 53.2917 121.305 53.2972 120.582C53.308 119.854 53.3135 119.12 53.3135 118.381C53.3135 117.641 53.308 116.913 53.2972 116.196C53.2863 115.478 53.27 114.788 53.2482 114.125C53.2428 113.804 53.1558 113.57 52.9873 113.424C52.8243 113.271 52.5715 113.195 52.2291 113.195C51.8867 113.195 51.6312 113.271 51.4627 113.424C51.2996 113.57 51.2127 113.804 51.2018 114.125C51.1801 114.788 51.161 115.478 51.1447 116.196C51.1339 116.913 51.1284 117.641 51.1284 118.381C51.1339 119.12 51.142 119.854 51.1529 120.582C51.1638 121.305 51.1801 122.003 51.2018 122.677C51.2127 122.998 51.2996 123.234 51.4627 123.387C51.6312 123.533 51.8867 123.607 52.2291 123.607ZM53.3379 109.746H54.0554C54.0391 110.247 53.9413 110.619 53.7619 110.863C53.5825 111.103 53.3271 111.222 52.9955 111.222C52.7889 111.222 52.6232 111.187 52.4982 111.116C52.3786 111.046 52.2753 110.967 52.1883 110.88C52.1068 110.787 52.0198 110.709 51.9274 110.643C51.8405 110.573 51.7236 110.537 51.5769 110.537C51.4355 110.537 51.335 110.592 51.2752 110.7C51.2208 110.804 51.1828 110.95 51.161 111.141H50.4436C50.487 110.608 50.6012 110.219 50.786 109.975C50.9762 109.73 51.2399 109.608 51.5769 109.608C51.7888 109.608 51.9573 109.643 52.0823 109.714C52.2128 109.779 52.3215 109.858 52.4085 109.95C52.4954 110.037 52.5797 110.116 52.6612 110.187C52.7482 110.252 52.8569 110.285 52.9873 110.285C53.1178 110.285 53.2075 110.238 53.2564 110.146C53.3053 110.054 53.3325 109.92 53.3379 109.746Z" fill="#B3B3B3"/>
<path d="M59.7338 124.928V111.883H64.3893V113.448H61.4949V117.541H64.2262V119.106H61.4949V123.362H64.3893V124.928H59.7338Z" fill="#B3B3B3"/>
<path d="M71.3601 125.066C70.3871 125.066 69.6914 124.857 69.2729 124.438C68.8543 124.014 68.626 123.319 68.588 122.351C68.5826 122.096 68.5771 121.848 68.5717 121.609C68.5717 121.365 68.5744 121.12 68.5798 120.875C68.5907 120.631 68.607 120.381 68.6288 120.125H70.292C70.2702 120.56 70.2567 120.995 70.2512 121.43C70.2512 121.865 70.2648 122.275 70.292 122.661C70.3137 122.982 70.4089 123.221 70.5774 123.378C70.7458 123.531 71.004 123.607 71.3519 123.607C71.6943 123.607 71.9416 123.531 72.0938 123.378C72.246 123.221 72.3384 122.982 72.371 122.661C72.3873 122.416 72.3982 122.188 72.4036 121.976C72.4091 121.764 72.4091 121.549 72.4036 121.332C72.3982 121.115 72.3873 120.875 72.371 120.615C72.3493 120.294 72.2841 120.019 72.1754 119.791C72.0667 119.563 71.8683 119.411 71.5802 119.335L70.4877 119.057C69.9985 118.932 69.6153 118.75 69.3381 118.511C69.0609 118.266 68.8625 117.957 68.7429 117.582C68.6233 117.207 68.5554 116.758 68.5391 116.236C68.5336 115.943 68.5309 115.644 68.5309 115.34C68.5363 115.035 68.5418 114.733 68.5472 114.435C68.569 113.793 68.6722 113.277 68.857 112.885C69.0473 112.489 69.3435 112.201 69.7457 112.021C70.1534 111.836 70.6888 111.744 71.3519 111.744C72.2922 111.744 72.9716 111.953 73.3902 112.372C73.8141 112.79 74.0452 113.481 74.0832 114.443C74.0941 114.709 74.0968 115.038 74.0913 115.429C74.0859 115.815 74.075 116.201 74.0587 116.587H72.3629C72.3792 116.179 72.3873 115.772 72.3873 115.364C72.3928 114.951 72.3873 114.54 72.371 114.133C72.3656 113.818 72.2759 113.584 72.102 113.432C71.928 113.274 71.6753 113.195 71.3437 113.195C70.9959 113.195 70.7431 113.274 70.5855 113.432C70.4279 113.584 70.3355 113.818 70.3083 114.133C70.2811 114.481 70.2675 114.831 70.2675 115.185C70.273 115.538 70.2866 115.888 70.3083 116.236C70.33 116.584 70.398 116.864 70.5121 117.076C70.6263 117.288 70.8328 117.432 71.1318 117.508L72.1183 117.745C72.6347 117.864 73.0369 118.052 73.325 118.307C73.613 118.557 73.8169 118.875 73.9364 119.261C74.056 119.642 74.124 120.093 74.1403 120.615C74.1511 120.843 74.1566 121.049 74.1566 121.234C74.1566 121.419 74.1539 121.601 74.1484 121.78C74.143 121.954 74.1376 122.145 74.1321 122.351C74.0941 123.319 73.8631 124.014 73.4391 124.438C73.0206 124.857 72.3276 125.066 71.3601 125.066Z" fill="#B3B3B3"/>
<path d="M85.4257 124.928V111.883H87.1868V124.928H85.4257Z" fill="#B3B3B3"/>
<path d="M91.9674 124.928V111.883H94.6579L95.5058 116.024L96.5087 123.362H96.9081L96.582 116.986L96.4516 111.883H98.1637V124.928H95.3509L94.4541 120.452L93.6551 113.44H93.2311L93.5328 119.987L93.6714 124.928H91.9674Z" fill="#B3B3B3"/>
<path d="M104.143 124.928V113.448H102.267V111.883H107.787V113.448H105.912V124.928H104.143Z" fill="#B3B3B3"/>
<path d="M111.898 124.928V111.883H116.553V113.448H113.659V117.541H116.39V119.106H113.659V123.362H116.553V124.928H111.898Z" fill="#B3B3B3"/>
<path d="M123.671 125.066C123.008 125.066 122.475 124.977 122.073 124.797C121.676 124.612 121.383 124.322 121.192 123.925C121.008 123.523 120.904 122.998 120.883 122.351C120.866 121.753 120.855 121.123 120.85 120.46C120.845 119.791 120.842 119.117 120.842 118.438C120.842 117.753 120.845 117.082 120.85 116.424C120.855 115.761 120.866 115.133 120.883 114.54C120.91 113.867 121.018 113.326 121.209 112.918C121.399 112.505 121.692 112.206 122.089 112.021C122.491 111.836 123.016 111.744 123.663 111.744C124.592 111.744 125.269 111.953 125.693 112.372C126.122 112.79 126.364 113.481 126.419 114.443C126.435 114.78 126.443 115.138 126.443 115.519C126.443 115.894 126.435 116.25 126.419 116.587H124.657C124.674 116.217 124.682 115.81 124.682 115.364C124.682 114.913 124.674 114.502 124.657 114.133C124.641 113.818 124.549 113.584 124.38 113.432C124.217 113.274 123.978 113.195 123.663 113.195C123.331 113.195 123.081 113.274 122.913 113.432C122.75 113.584 122.66 113.818 122.644 114.133C122.622 114.812 122.603 115.511 122.587 116.228C122.576 116.946 122.57 117.669 122.57 118.397C122.57 119.125 122.576 119.848 122.587 120.566C122.603 121.283 122.622 121.982 122.644 122.661C122.66 122.982 122.75 123.221 122.913 123.378C123.081 123.531 123.334 123.607 123.671 123.607C124.008 123.607 124.269 123.531 124.454 123.378C124.638 123.221 124.739 122.982 124.755 122.661C124.761 122.454 124.763 122.226 124.763 121.976C124.769 121.721 124.769 121.471 124.763 121.226C124.763 120.976 124.761 120.745 124.755 120.533H123.761V118.992H126.476C126.492 119.449 126.497 119.965 126.492 120.541C126.492 121.117 126.481 121.721 126.459 122.351C126.421 123.319 126.185 124.014 125.75 124.438C125.321 124.857 124.628 125.066 123.671 125.066Z" fill="#B3B3B3"/>
<path d="M131.064 124.928V111.883H133.632C134.605 111.883 135.309 112.086 135.744 112.494C136.184 112.902 136.421 113.578 136.453 114.524C136.47 114.921 136.478 115.285 136.478 115.617C136.483 115.943 136.483 116.266 136.478 116.587C136.478 116.902 136.47 117.236 136.453 117.59C136.437 118.204 136.331 118.704 136.135 119.09C135.945 119.47 135.649 119.753 135.247 119.938L136.674 124.928H134.798L133.583 120.231H132.825V124.928H131.064ZM132.825 118.674H133.624C133.978 118.674 134.238 118.593 134.407 118.43C134.581 118.261 134.676 118.011 134.692 117.679C134.709 117.332 134.719 116.976 134.725 116.611C134.73 116.242 134.73 115.875 134.725 115.511C134.719 115.141 134.709 114.782 134.692 114.435C134.676 114.103 134.584 113.856 134.415 113.693C134.247 113.53 133.986 113.448 133.632 113.448H132.825V118.674Z" fill="#B3B3B3"/>
<path d="M140.548 124.928L142.146 111.883H145.081L146.679 124.928H144.877L144.568 121.674H142.66L142.358 124.928H140.548ZM142.831 120.109H144.404L144.127 117.239L143.842 113.448H143.385L143.108 117.239L142.831 120.109Z" fill="#B3B3B3"/>
<path d="M150.963 124.928V111.883H153.662C154.645 111.883 155.357 112.097 155.798 112.527C156.238 112.951 156.466 113.655 156.483 114.638C156.499 115.535 156.51 116.386 156.515 117.19C156.521 117.995 156.521 118.802 156.515 119.612C156.51 120.416 156.499 121.267 156.483 122.164C156.466 123.147 156.238 123.854 155.798 124.283C155.357 124.713 154.643 124.928 153.653 124.928H150.963ZM152.724 123.362H153.653C154.012 123.362 154.279 123.281 154.452 123.118C154.626 122.949 154.716 122.696 154.722 122.359C154.738 121.696 154.749 121.036 154.754 120.378C154.76 119.715 154.762 119.055 154.762 118.397C154.762 117.739 154.76 117.082 154.754 116.424C154.749 115.761 154.738 115.098 154.722 114.435C154.716 114.103 154.626 113.856 154.452 113.693C154.279 113.53 154.015 113.448 153.662 113.448H152.724V123.362Z" fill="#B3B3B3"/>
<path d="M160.574 124.928L162.172 111.883H165.107L166.705 124.928H164.904L164.594 121.674H162.686L162.384 124.928H160.574ZM162.857 120.109H164.431L164.153 117.239L163.868 113.448H163.411L163.134 117.239L162.857 120.109Z" fill="#B3B3B3"/>
<path d="M173.574 125.066C172.601 125.066 171.905 124.857 171.486 124.438C171.068 124.014 170.84 123.319 170.802 122.351C170.796 122.096 170.791 121.848 170.785 121.609C170.785 121.365 170.788 121.12 170.793 120.875C170.804 120.631 170.821 120.381 170.842 120.125H172.506C172.484 120.56 172.47 120.995 172.465 121.43C172.465 121.865 172.478 122.275 172.506 122.661C172.527 122.982 172.622 123.221 172.791 123.378C172.959 123.531 173.218 123.607 173.565 123.607C173.908 123.607 174.155 123.531 174.307 123.378C174.46 123.221 174.552 122.982 174.585 122.661C174.601 122.416 174.612 122.188 174.617 121.976C174.623 121.764 174.623 121.549 174.617 121.332C174.612 121.115 174.601 120.875 174.585 120.615C174.563 120.294 174.498 120.019 174.389 119.791C174.28 119.563 174.082 119.411 173.794 119.335L172.701 119.057C172.212 118.932 171.829 118.75 171.552 118.511C171.274 118.266 171.076 117.957 170.956 117.582C170.837 117.207 170.769 116.758 170.753 116.236C170.747 115.943 170.744 115.644 170.744 115.34C170.75 115.035 170.755 114.733 170.761 114.435C170.783 113.793 170.886 113.277 171.071 112.885C171.261 112.489 171.557 112.201 171.959 112.021C172.367 111.836 172.902 111.744 173.565 111.744C174.506 111.744 175.185 111.953 175.604 112.372C176.028 112.79 176.259 113.481 176.297 114.443C176.308 114.709 176.31 115.038 176.305 115.429C176.299 115.815 176.289 116.201 176.272 116.587H174.576C174.593 116.179 174.601 115.772 174.601 115.364C174.606 114.951 174.601 114.54 174.585 114.133C174.579 113.818 174.489 113.584 174.316 113.432C174.142 113.274 173.889 113.195 173.557 113.195C173.209 113.195 172.957 113.274 172.799 113.432C172.641 113.584 172.549 113.818 172.522 114.133C172.495 114.481 172.481 114.831 172.481 115.185C172.487 115.538 172.5 115.888 172.522 116.236C172.544 116.584 172.612 116.864 172.726 117.076C172.84 117.288 173.046 117.432 173.345 117.508L174.332 117.745C174.848 117.864 175.25 118.052 175.539 118.307C175.827 118.557 176.03 118.875 176.15 119.261C176.27 119.642 176.338 120.093 176.354 120.615C176.365 120.843 176.37 121.049 176.37 121.234C176.37 121.419 176.367 121.601 176.362 121.78C176.357 121.954 176.351 122.145 176.346 122.351C176.308 123.319 176.077 124.014 175.653 124.438C175.234 124.857 174.541 125.066 173.574 125.066Z" fill="#B3B3B3"/>
<defs>
<linearGradient id="paint0_linear_2_354" x1="63.4884" y1="43.804" x2="114.038" y2="44.2117" gradientUnits="userSpaceOnUse">
<stop stop-color="#E6E6E6"/>
<stop offset="1" stop-color="#666666"/>
</linearGradient>
<linearGradient id="paint1_linear_2_354" x1="116.891" y1="52.3648" x2="62.6731" y2="51.9571" gradientUnits="userSpaceOnUse">
<stop stop-color="#666666"/>
<stop offset="1" stop-color="#E6E6E6"/>
</linearGradient>
<linearGradient id="paint2_linear_2_354" x1="116.076" y1="9.96839" x2="74.4951" y2="9.96839" gradientUnits="userSpaceOnUse">
<stop stop-color="#FF9900"/>
<stop offset="1" stop-color="#FFCC33"/>
</linearGradient>
<linearGradient id="paint3_linear_2_354" x1="76.1257" y1="14.045" x2="115.668" y2="14.045" gradientUnits="userSpaceOnUse">
<stop stop-color="#FFCC33"/>
<stop offset="1" stop-color="#FC9100"/>
</linearGradient>
</defs>
</svg>
